<?xml version="1.0" encoding="UTF-8" standalone="no"?>
<svg
   xmlns:dc="http://purl.org/dc/elements/1.1/"
   xmlns:cc="http://creativecommons.org/ns#"
   xmlns:rdf="http://www.w3.org/1999/02/22-rdf-syntax-ns#"
   xmlns:svg="http://www.w3.org/2000/svg"
   xmlns="http://www.w3.org/2000/svg"
   xmlns:sodipodi="http://sodipodi.sourceforge.net/DTD/sodipodi-0.dtd"
   xmlns:inkscape="http://www.inkscape.org/namespaces/inkscape"
   viewBox="0 0 75.207031 90"
   version="1.1"
   x="0px"
   y="0px"
   id="svg12"
   sodipodi:docname="noun-kindle-612906.svg"
   width="75.207031"
   height="90"
   inkscape:version="1.0.2-2 (e86c870879, 2021-01-15)">
  <metadata
     id="metadata18">
    <rdf:RDF>
      <cc:Work
         rdf:about="">
        <dc:format>image/svg+xml</dc:format>
        <dc:type
           rdf:resource="http://purl.org/dc/dcmitype/StillImage" />
        <dc:title>Noun Project</dc:title>
      </cc:Work>
    </rdf:RDF>
  </metadata>
  <defs
     id="defs16" />
  <sodipodi:namedview
     pagecolor="#ffffff"
     bordercolor="#666666"
     borderopacity="1"
     objecttolerance="10"
     gridtolerance="10"
     guidetolerance="10"
     inkscape:pageopacity="0"
     inkscape:pageshadow="2"
     inkscape:window-width="1920"
     inkscape:window-height="1001"
     id="namedview14"
     showgrid="false"
     fit-margin-top="0"
     fit-margin-left="0"
     fit-margin-right="0"
     fit-margin-bottom="0"
     inkscape:zoom="6.5573456"
     inkscape:cx="37.603516"
     inkscape:cy="68.030633"
     inkscape:window-x="-9"
     inkscape:window-y="-9"
     inkscape:window-maximized="1"
     inkscape:current-layer="svg12" />
  <title
     id="title2">Noun Project</title>
  <g
     transform="translate(-7.396484,-962.36218)"
     id="g6">
    <path
       style="color:#000000;clip-rule:nonzero;display:inline;overflow:visible;visibility:visible;opacity:1;isolation:auto;mix-blend-mode:normal;color-interpolation:sRGB;color-interpolation-filters:linearRGB;solid-color:#000000;solid-opacity:1;fill:#000000;fill-opacity:1;fill-rule:nonzero;stroke:none;stroke-width:0.1;stroke-linecap:round;stroke-miterlimit:4;stroke-dasharray:none;stroke-opacity:1;color-rendering:auto;image-rendering:auto;shape-rendering:auto;text-rendering:auto;enable-background:accumulate"
       d="M 15.574219,5 C 13.81317,5 12.396484,6.449 12.396484,8.25 v 82.935547 c 0,1.8009 1.416687,3.251953 3.177735,3.251953 h 2.240234 v 0.416016 c 0,0.081 0.06373,0.146484 0.142578,0.146484 h 4.566407 c 0.07885,0 0.142578,-0.06568 0.142578,-0.146484 V 94.4375 h 61.757812 c 1.76105,0 3.179688,-1.451053 3.179688,-3.251953 V 8.25 C 87.603516,6.449 86.184879,5 84.423828,5 Z m 10.439453,5.992188 H 81.246094 V 87.65625 H 26.013672 Z m 27.773437,19.43164 c -8.200995,0 -16.066255,3.259614 -21.865234,9.058594 a 1.9335904,1.9335904 0 1 0 2.732422,2.734375 c 5.074865,-5.07486 11.955869,-7.925781 19.132812,-7.925781 7.176943,0 14.059901,2.850921 19.134766,7.925781 a 1.9335904,1.9335904 0 0 0 1.386719,0.585937 1.9335904,1.9335904 0 0 0 1.345703,-3.320312 C 69.855318,33.683442 61.988104,30.423828 53.787109,30.423828 Z m -36.287109,4 c 0.389356,0 0.703125,0.32055 0.703125,0.71875 v 10.03125 c 0,0.3982 -0.313769,0.716797 -0.703125,0.716797 -0.389355,0 -0.703125,-0.318597 -0.703125,-0.716797 v -10.03125 c 0,-0.3982 0.31377,-0.71875 0.703125,-0.71875 z m 36.287109,4.716797 c -5.714982,0 -11.197178,2.27135 -15.238281,6.3125 a 1.9335904,1.9335904 0 1 0 2.734375,2.734375 c 3.316988,-3.317 7.812976,-5.179688 12.503906,-5.179688 4.69093,0 9.188871,1.862688 12.50586,5.179688 a 1.9335904,1.9335904 0 0 0 1.386719,0.585938 1.9335904,1.9335904 0 0 0 1.347656,-3.320313 c -4.041103,-4.04115 -9.525253,-6.3125 -15.240235,-6.3125 z m 0,8.970703 c -3.401914,0 -6.664796,1.352313 -9.070312,3.757813 a 1.8147231,1.8147231 0 0 0 2.566406,2.566406 c 1.725939,-1.726 4.06306,-2.695313 6.503906,-2.695313 2.440847,0 4.779921,0.969313 6.50586,2.695313 a 1.8146652,1.8146652 0 0 0 1.302734,0.548828 1.8146652,1.8146652 0 0 0 1.263672,-3.115234 c -2.405517,-2.4055 -5.670351,-3.757813 -9.072266,-3.757813 z M 17.5,53.134766 c 0.389356,0 0.703125,0.32055 0.703125,0.71875 v 10.029296 c 0,0.3981 -0.313769,0.71875 -0.703125,0.71875 -0.389355,0 -0.703125,-0.32065 -0.703125,-0.71875 V 53.853516 c 0,-0.3982 0.31377,-0.71875 0.703125,-0.71875 z m 36.287109,4.03125 a 4.5240636,4.5240636 0 0 0 -4.523437,4.523437 4.5240636,4.5240636 0 0 0 4.523437,4.525391 4.5240636,4.5240636 0 0 0 4.525391,-4.525391 4.5240636,4.5240636 0 0 0 -4.525391,-4.523437 z"
       transform="translate(-5,957.36218)"
       id="path4" />
  </g>
</svg>
